<svg width="29" height="21" viewBox="0 0 29 21" fill="none" xmlns="http://www.w3.org/2000/svg">
<g clip-path="url(#clip0)">
<path d="M19.3 4.9C19.3 7.6 14.4 16.4 14.4 16.4C14.4 16.4 9.5 7.6 9.5 4.9C9.5 2.2 11.7 0 14.4 0C17.1 0 19.3 2.2 19.3 4.9Z" fill="#79C0AA"/>
<path d="M26.6 18.5C24.5 20.2 17.4 19.8 17.4 19.8C17.4 19.8 18.2 12.7 20.3 11C22.4 9.30004 25.4 9.50004 27.2 11.6C28.9 13.7 28.7 16.8 26.6 18.5Z" fill="#79C0AA"/>
<path d="M8.00002 11.5C10.1 13.2 10.9 20.3 10.9 20.3C10.9 20.3 3.80002 20.7 1.70002 19C-0.399982 17.3 -0.599982 14.2 1.10002 12.1C2.80002 10 6.00002 9.80004 8.00002 11.5Z" fill="#79C0AA"/>
</g>
<defs>
<clipPath id="clip0">
<rect width="28.3" height="20.4" fill="white"/>
</clipPath>
</defs>
</svg>
