<svg width="287" height="299" viewBox="0 0 287 299" fill="none" xmlns="http://www.w3.org/2000/svg">
<g clip-path="url(#clip0)">
<path d="M0 169.627V155.65C0 148.461 2.98435 145 11.2079 145C13.3964 145 16.0492 145.333 18.7683 145.865L18.7019 149.127C18.7019 150.059 18.1051 150.591 17.1766 150.391C15.5849 150.059 13.5291 149.659 11.4732 149.659C6.83085 149.659 5.17288 151.323 5.17288 155.716V169.627C5.17288 174.02 6.89717 175.617 11.4732 175.617C13.4627 175.617 15.5849 175.218 17.2429 174.819C18.1051 174.619 18.7683 175.085 18.7683 176.017L18.8346 179.411C16.1818 180.01 13.5291 180.343 11.2079 180.343C2.85171 180.277 0 176.682 0 169.627Z" fill="black"/>
<path d="M37.6691 161.773L49.3413 179.678H44.1684C43.4389 179.678 42.9747 179.411 42.5767 178.812L33.4911 164.569H30.1751V178.28C30.1751 179.079 29.6446 179.611 28.7824 179.611H25.0022V145.599H28.7824C29.6446 145.599 30.1751 146.131 30.1751 146.93V160.109H33.3584L41.9799 146.464C42.3115 145.865 42.842 145.599 43.6378 145.599H47.9486L37.6691 161.773Z" fill="black"/>
<path d="M58.0954 145.599C58.9575 145.599 59.4881 146.131 59.4881 146.93V179.611H54.3152V145.599H58.0954Z" fill="black"/>
<path d="M89 179.678H85.2198C84.3577 179.678 83.8271 179.145 83.8271 178.346V164.502H71.6244V178.346C71.6244 179.145 71.0939 179.678 70.2318 179.678H66.4516V145.599H70.2318C71.0939 145.599 71.6244 146.131 71.6244 146.93V159.71H83.8271V146.997C83.8271 146.198 84.3577 145.666 85.2198 145.666H89V179.678Z" fill="black"/>
<path d="M18.1051 190.593C18.1051 191.459 17.5745 191.925 16.7124 191.925H5.17288V228H0V187.199H18.1051V190.593Z" fill="black"/>
<path d="M24.8033 209.164H34.2869L29.5782 191.791L24.8033 209.164ZM43.041 221.277H38.6639C37.8681 221.277 37.3376 220.878 37.1386 220.146L35.4143 213.69H23.6095L21.8852 220.146C21.6863 220.878 21.1557 221.277 20.3599 221.277H16.2481L26.4613 187.199H32.7616L43.041 221.277Z" fill="black"/>
<path d="M51.6624 191.193V202.974C53.652 203.24 54.7794 203.306 55.8405 203.306C60.4165 203.306 62.6714 201.31 62.6714 197.249V196.451C62.6714 192.99 60.5492 191.059 55.5089 191.059C53.652 191.059 52.7235 191.126 51.6624 191.193ZM67.8443 196.318V197.516C67.8443 203.972 64.0641 207.832 56.1058 207.832C54.7794 207.832 53.3867 207.699 51.5961 207.5V219.946C51.5961 220.745 51.0656 221.278 50.2034 221.278H46.4232V186.866C49.7392 186.666 52.4583 186.6 55.5753 186.533C64.0641 186.533 67.8443 190.194 67.8443 196.318Z" fill="black"/>
<path d="M73.4814 216.552C75.4709 213.357 77.7258 208.165 77.7921 200.511C77.7921 197.383 77.8584 193.522 77.9247 191.925C77.9247 191.525 78.2563 191.192 78.7206 191.192C79.848 191.259 83.8934 191.392 83.8934 191.392V216.552H73.4814ZM78.3226 186.6C74.8741 186.6 73.2161 188.663 73.0835 191.725C73.0171 193.722 72.9508 196.251 72.9508 200.378C72.8845 210.894 68.2422 215.62 67.38 216.485H63.6662V224.406H67.3137C68.1759 224.406 68.7064 223.873 68.7064 223.075V221.277H83.8934V228.067H88.9337V216.552V187.132C89 187.132 78.3226 186.6 78.3226 186.6Z" fill="black"/>
</g>
<g clip-path="url(#clip1)">
<path fill-rule="evenodd" clip-rule="evenodd" d="M114.918 161.148C116.03 160.588 117.153 160.112 118.266 159.739C122.141 158.444 127.129 158.201 131.909 158.226C133.773 158.236 135.599 158.286 137.326 158.333C140.072 158.408 142.565 158.476 144.553 158.365M114.918 161.148C112.16 162.537 109.462 164.439 107.119 166.536C103.838 169.472 101.2 172.841 100.085 175.789C98.8073 179.116 97.8379 185.097 97.6949 191.591C97.5516 198.09 98.234 205.184 100.316 210.73C100.417 210.999 100.717 211.135 100.985 211.034C101.254 210.933 101.39 210.633 101.289 210.364C99.2733 204.994 98.6042 198.043 98.7518 191.605C98.8994 185.164 99.8624 179.317 101.056 176.16C102.112 173.416 104.618 170.179 107.83 167.302C110.118 165.253 112.736 163.411 115.392 162.074C116.461 161.536 117.535 161.08 118.596 160.726C122.293 159.49 127.133 159.253 131.912 159.283C133.634 159.294 135.354 159.341 137.003 159.385C139.88 159.463 142.54 159.534 144.615 159.403C151.573 159.009 158.663 157.374 163.818 155.484C163.975 155.427 164.132 155.371 164.29 155.318C166.658 154.516 169.111 154.179 170.801 154.452C171.709 154.599 172.299 154.906 172.591 155.302C172.859 155.666 172.965 156.233 172.602 157.149C171.809 159.101 169.713 161.872 167.121 164.568C164.538 167.254 161.525 169.803 158.955 171.324C153.812 174.367 145.921 175.275 139.232 175.4C135.903 175.463 132.899 175.331 130.729 175.184C129.643 175.111 128.767 175.033 128.163 174.974C127.861 174.945 127.626 174.92 127.468 174.903C127.389 174.894 127.329 174.887 127.289 174.882L127.244 174.877L127.233 174.876L127.23 174.875C127.23 174.875 127.23 174.875 127.229 174.885C127.228 174.891 127.227 174.9 127.225 174.914L127.23 174.875C126.945 174.841 126.686 175.044 126.651 175.329C126.617 175.614 126.819 175.873 127.105 175.908L127.167 175.392C127.105 175.908 127.104 175.908 127.105 175.908L127.106 175.908L127.122 175.91L127.169 175.915C127.211 175.92 127.273 175.927 127.355 175.936C127.517 175.954 127.755 175.979 128.062 176.009C128.675 176.069 129.562 176.147 130.658 176.222C132.851 176.37 135.885 176.503 139.251 176.44C145.954 176.314 154.089 175.412 159.485 172.219C162.161 170.634 165.249 168.016 167.871 165.289C170.483 162.572 172.696 159.682 173.567 157.538C173.567 157.537 173.567 157.537 173.567 157.536C174.023 156.413 174 155.431 173.449 154.677C172.921 153.956 172.003 153.58 170.984 153.417C169.142 153.122 166.637 153.468 164.263 154.232" fill="black"/>
<path fill-rule="evenodd" clip-rule="evenodd" d="M127.437 173.035C127.722 173.02 127.966 173.237 127.984 173.522C128.024 174.175 127.957 174.85 127.593 175.529C127.234 176.202 126.611 176.827 125.635 177.441C125.392 177.594 125.071 177.52 124.918 177.277C124.765 177.034 124.838 176.713 125.081 176.561C125.957 176.01 126.42 175.495 126.666 175.025C126.91 174.56 126.968 174.09 126.945 173.577C126.933 173.292 127.152 173.05 127.437 173.035Z" fill="black"/>
<path fill-rule="evenodd" clip-rule="evenodd" d="M124.791 180.782C124.989 180.989 124.983 181.317 124.777 181.516C124.31 181.966 123.784 182.977 123.378 184.382C122.978 185.763 122.716 187.448 122.722 189.173C122.735 192.652 123.827 196.121 126.847 197.744C127.1 197.88 127.195 198.195 127.059 198.448C126.923 198.701 126.607 198.796 126.355 198.66C126.32 198.641 126.286 198.622 126.252 198.604C122.811 196.69 121.684 192.773 121.665 189.186C121.656 187.361 121.931 185.578 122.36 184.102C122.782 182.65 123.375 181.417 124.057 180.766C124.264 180.568 124.593 180.575 124.791 180.782Z" fill="black"/>
<path fill-rule="evenodd" clip-rule="evenodd" d="M116.696 183.149C116.574 182.889 116.686 182.58 116.945 182.458C116.946 182.458 116.946 182.458 116.946 182.458C119.649 181.187 123.671 180.568 127.375 180.247C130.406 179.984 133.282 179.917 135.135 179.874C135.557 179.864 135.925 179.856 136.231 179.846M117.388 183.399C117.388 183.399 117.388 183.399 117.388 183.399C117.128 183.521 116.818 183.409 116.696 183.149M117.388 183.399C119.885 182.226 123.73 181.621 127.43 181.3C130.309 181.051 133.044 180.977 134.915 180.926C135.438 180.912 135.893 180.899 136.266 180.886C139.574 180.784 141.146 180.69 142.953 179.843C143.852 179.421 144.852 178.749 145.681 177.998C146.494 177.261 147.218 176.38 147.455 175.523C147.531 175.246 147.368 174.96 147.092 174.884C146.815 174.807 146.529 174.97 146.452 175.247C146.297 175.809 145.758 176.524 144.983 177.227C144.223 177.916 143.308 178.528 142.512 178.901" fill="black"/>
<path d="M130.818 175.708C130.035 178.197 123.41 187.585 126.04 188.531C128.67 189.478 135.538 184.158 137.204 181.34C138.847 178.476 136.236 175.949 136.236 175.949L130.818 175.708Z" fill="white"/>
<path fill-rule="evenodd" clip-rule="evenodd" d="M130.323 175.551C130.393 175.327 130.606 175.178 130.842 175.188L136.26 175.429C136.386 175.435 136.507 175.487 136.598 175.575L136.236 175.949C136.598 175.575 136.598 175.575 136.598 175.575L136.599 175.576L136.6 175.577L136.603 175.58L136.611 175.588C136.617 175.594 136.626 175.603 136.638 175.615C136.66 175.638 136.691 175.671 136.729 175.712C136.806 175.796 136.91 175.916 137.029 176.069C137.266 176.374 137.565 176.814 137.81 177.356C138.302 178.446 138.585 179.978 137.655 181.599L137.652 181.605L137.652 181.605C136.762 183.109 134.557 185.194 132.28 186.774C131.133 187.57 129.94 188.257 128.85 188.687C127.789 189.105 126.711 189.325 125.864 189.02C125.333 188.829 125.046 188.409 124.948 187.911C124.857 187.447 124.924 186.905 125.063 186.352C125.342 185.238 125.973 183.852 126.687 182.461C127.248 181.367 127.876 180.242 128.451 179.212C128.611 178.925 128.767 178.646 128.917 178.376C129.617 177.112 130.146 176.112 130.323 175.551ZM136.002 176.459L131.175 176.244C130.897 176.924 130.391 177.861 129.826 178.881C129.674 179.156 129.515 179.439 129.354 179.728C128.78 180.756 128.164 181.86 127.612 182.936C126.9 184.321 126.319 185.615 126.071 186.605C125.946 187.104 125.921 187.47 125.968 187.711C126.009 187.917 126.089 187.996 126.216 188.042C126.684 188.211 127.45 188.121 128.469 187.719C129.459 187.329 130.58 186.688 131.687 185.92C133.916 184.374 135.977 182.392 136.755 181.079C137.466 179.836 137.265 178.674 136.863 177.784C136.66 177.337 136.41 176.966 136.208 176.708C136.129 176.605 136.058 176.522 136.002 176.459Z" fill="black"/>
<path d="M138.06 153.554C140.007 151.526 146.75 151.391 142.143 159.007L137.26 158.903L138.06 153.554Z" fill="white"/>
<path fill-rule="evenodd" clip-rule="evenodd" d="M138.548 153.804L137.862 158.396L141.851 158.48C142.865 156.745 143.215 155.507 143.202 154.664C143.19 153.827 142.826 153.374 142.33 153.13C141.793 152.866 141.04 152.824 140.276 152.988C139.581 153.136 138.954 153.44 138.548 153.804ZM144.242 154.649C144.259 155.819 143.76 157.339 142.588 159.276C142.492 159.435 142.318 159.53 142.132 159.526L137.249 159.423C137.1 159.42 136.959 159.353 136.863 159.239C136.767 159.124 136.724 158.974 136.746 158.827L137.545 153.477C137.561 153.37 137.61 153.271 137.685 153.194C138.262 152.592 139.153 152.165 140.058 151.971C140.962 151.777 141.973 151.796 142.788 152.197C143.646 152.619 144.225 153.433 144.242 154.649Z" fill="black"/>
<path d="M134.718 147.378C132.997 147.197 127.337 152.141 126.047 156.399C124.686 160.634 123.401 166.636 127.702 166.625C132.003 166.613 135.388 163.163 136.868 160.09C138.278 156.994 139.346 147.784 134.718 147.378Z" fill="white"/>
<path fill-rule="evenodd" clip-rule="evenodd" d="M134.768 146.861C136.13 146.981 137.068 147.764 137.661 148.851C138.243 149.918 138.507 151.293 138.577 152.7C138.715 155.51 138.086 158.671 137.341 160.306L137.337 160.316C135.813 163.481 132.285 167.133 127.703 167.145C126.492 167.148 125.597 166.719 125.019 165.936C124.464 165.184 124.256 164.177 124.231 163.116C124.183 160.995 124.87 158.365 125.551 156.244C126.234 153.995 128.041 151.622 129.858 149.851C130.773 148.96 131.71 148.202 132.54 147.674C132.954 147.41 133.352 147.197 133.715 147.055C134.065 146.918 134.432 146.826 134.768 146.861ZM130.584 150.596C128.819 152.316 127.153 154.543 126.544 156.55L126.542 156.558C125.863 158.672 125.227 161.159 125.271 163.093C125.293 164.061 125.485 164.816 125.856 165.319C126.204 165.791 126.761 166.108 127.7 166.105C131.719 166.094 134.961 162.85 136.397 159.87C137.062 158.406 137.67 155.418 137.538 152.751C137.472 151.418 137.224 150.221 136.749 149.349C136.285 148.5 135.622 147.979 134.673 147.896L134.664 147.895C134.571 147.885 134.386 147.909 134.094 148.023C133.813 148.133 133.476 148.31 133.098 148.551C132.342 149.032 131.461 149.742 130.584 150.596Z" fill="black"/>
<path d="M117.897 160.443C115.892 158.426 113.047 155.434 112.851 151.459C112.654 147.484 116.392 128.199 111.287 123.144C106.205 118.136 101.779 123.914 97.1081 124.693C92.5067 125.496 88.6685 124.809 85.5082 125.469C82.3479 126.128 75.2398 128.542 76.2287 133.166C77.2176 137.79 83.4512 138.727 86.9836 138.113C90.5625 137.475 92.9467 133.54 98.3641 133.548C103.781 133.557 105.376 138.459 106.223 142.456C107.071 146.452 107.035 158.984 112.997 162.851C115.341 161.148 117.897 160.443 117.897 160.443Z" fill="black"/>
<path fill-rule="evenodd" clip-rule="evenodd" d="M79.0395 127.388C81.1587 126.081 83.7903 125.296 85.402 124.96C86.9595 124.635 88.6667 124.626 90.4688 124.616C90.5672 124.616 90.6658 124.615 90.7647 124.615C92.6936 124.604 94.7649 124.575 97.0187 124.181L97.0225 124.181C98.1088 123.999 99.2024 123.523 100.348 122.953C100.636 122.809 100.929 122.659 101.226 122.507C102.082 122.067 102.968 121.613 103.853 121.264C105.056 120.791 106.325 120.482 107.649 120.648C108.984 120.815 110.314 121.456 111.652 122.774L111.652 122.775C113.055 124.163 113.798 126.461 114.172 129.068C114.549 131.696 114.565 134.742 114.429 137.73C114.292 140.721 114.001 143.675 113.759 146.12L113.752 146.187C113.51 148.626 113.324 150.498 113.37 151.433C113.555 155.184 116.245 158.044 118.266 160.077C118.396 160.208 118.447 160.398 118.399 160.577C118.352 160.755 118.213 160.895 118.035 160.944L118.035 160.945L118.031 160.946L118.012 160.951C117.995 160.956 117.968 160.964 117.933 160.974C117.863 160.996 117.759 161.028 117.626 161.073C117.36 161.162 116.979 161.299 116.526 161.488C115.618 161.867 114.432 162.451 113.303 163.272C113.129 163.398 112.895 163.404 112.715 163.287C111.116 162.251 109.946 160.651 109.073 158.819C108.2 156.985 107.609 154.886 107.183 152.806C106.757 150.725 106.494 148.645 106.285 146.845C106.251 146.554 106.218 146.272 106.187 145.999C106.023 144.562 105.887 143.377 105.715 142.563C105.293 140.573 104.698 138.436 103.578 136.8C102.48 135.196 100.879 134.072 98.3632 134.068C95.7967 134.064 93.9457 134.988 92.2576 136.031C91.9594 136.215 91.6591 136.408 91.3585 136.6C90.8246 136.943 90.29 137.286 89.7656 137.582C88.9288 138.055 88.0506 138.451 87.0748 138.625L87.0727 138.625C85.2295 138.945 82.6979 138.862 80.4822 138.095C78.2637 137.327 76.2672 135.832 75.7203 133.275C75.1531 130.623 76.9434 128.681 79.0395 127.388ZM116.939 160.211C114.996 158.207 112.519 155.287 112.331 151.485C112.281 150.47 112.472 148.549 112.704 146.22L112.724 146.017C112.967 143.57 113.255 140.642 113.39 137.683C113.525 134.72 113.506 131.749 113.143 129.216C112.776 126.66 112.071 124.653 110.921 123.514C109.717 122.328 108.589 121.813 107.52 121.679C106.438 121.544 105.356 121.79 104.234 122.232C103.401 122.56 102.583 122.979 101.74 123.412C101.435 123.569 101.125 123.727 100.811 123.883C99.6548 124.459 98.4442 124.997 97.1956 125.206C94.8487 125.615 92.7008 125.644 90.7707 125.655C90.6858 125.655 90.6015 125.656 90.5177 125.656C88.6755 125.666 87.0661 125.675 85.6144 125.977C84.0658 126.301 81.5632 127.053 79.5855 128.273C77.5847 129.508 76.3154 131.085 76.7371 133.057C77.1791 135.124 78.7938 136.41 80.8225 137.112C82.8534 137.816 85.2043 137.894 86.8934 137.601C87.7066 137.456 88.4683 137.121 89.2541 136.677C89.7574 136.393 90.2441 136.08 90.7571 135.751C91.0628 135.554 91.3778 135.352 91.7113 135.146C93.4643 134.063 95.5141 133.024 98.3649 133.029C101.267 133.033 103.171 134.365 104.436 136.213C105.68 138.029 106.306 140.341 106.732 142.348C106.916 143.214 107.058 144.463 107.222 145.895C107.253 146.165 107.285 146.442 107.317 146.725C107.526 148.52 107.785 150.563 108.202 152.598C108.618 154.635 109.189 156.643 110.012 158.372C110.778 159.979 111.749 161.317 112.993 162.218C114.112 161.447 115.249 160.895 116.126 160.529C116.431 160.401 116.706 160.296 116.939 160.211Z" fill="black"/>
<path d="M130.609 158.177C130.889 158.734 130.519 159.503 129.776 159.877C129.033 160.251 128.196 160.09 127.915 159.533C127.635 158.976 128.005 158.207 128.748 157.833C129.514 157.506 130.328 157.62 130.609 158.177Z" fill="black"/>
<path fill-rule="evenodd" clip-rule="evenodd" d="M128.415 158.842C128.318 159.041 128.329 159.198 128.38 159.299C128.43 159.4 128.55 159.502 128.768 159.543C128.985 159.584 129.265 159.552 129.542 159.412C129.82 159.272 130.012 159.066 130.109 158.868C130.206 158.669 130.195 158.512 130.144 158.411C130.097 158.316 129.989 158.223 129.773 158.186C129.557 158.149 129.269 158.179 128.967 158.305C128.697 158.445 128.51 158.647 128.415 158.842ZM127.48 158.387C127.684 157.968 128.049 157.603 128.514 157.369C128.524 157.364 128.533 157.36 128.543 157.355C129.002 157.159 129.499 157.084 129.948 157.161C130.4 157.238 130.84 157.481 131.073 157.943C131.303 158.4 131.247 158.906 131.044 159.323C130.84 159.742 130.475 160.107 130.01 160.341C129.545 160.575 129.034 160.651 128.577 160.565C128.12 160.48 127.681 160.223 127.451 159.767C127.221 159.31 127.277 158.804 127.48 158.387Z" fill="black"/>
<path d="M162.478 155.464C166.45 154.221 171.979 152.37 173.146 153.994C174.826 156.292 171.327 160.788 170.724 161.325C172.287 154.485 164.695 158.597 162.478 155.464Z" fill="black"/>
<path fill-rule="evenodd" clip-rule="evenodd" d="M161.985 155.298C162.038 155.14 162.164 155.018 162.322 154.968C162.535 154.902 162.752 154.833 162.974 154.764C164.81 154.186 166.924 153.521 168.759 153.145C169.786 152.934 170.761 152.806 171.57 152.845C172.353 152.882 173.13 153.083 173.567 153.689C174.091 154.407 174.188 155.269 174.076 156.103C173.964 156.934 173.64 157.786 173.256 158.553C172.87 159.323 172.413 160.031 172.014 160.581C171.623 161.12 171.264 161.54 171.07 161.713C170.901 161.863 170.654 161.887 170.459 161.772C170.265 161.657 170.167 161.429 170.217 161.209C170.596 159.553 170.376 158.735 170.009 158.299C169.624 157.842 168.942 157.629 167.961 157.521C167.567 157.478 167.155 157.453 166.723 157.428C166.63 157.422 166.536 157.417 166.441 157.411C165.915 157.379 165.365 157.339 164.838 157.253C163.792 157.084 162.729 156.72 162.053 155.765C161.957 155.629 161.932 155.456 161.985 155.298ZM163.462 155.7C163.869 155.967 164.387 156.127 165.004 156.227C165.476 156.303 165.981 156.341 166.505 156.373C166.594 156.378 166.685 156.384 166.775 156.389C167.208 156.415 167.653 156.441 168.075 156.488C169.074 156.598 170.136 156.835 170.804 157.629C171.216 158.118 171.432 158.757 171.452 159.571C171.749 159.132 172.058 158.623 172.326 158.087C172.683 157.375 172.955 156.638 173.046 155.964C173.136 155.292 173.04 154.731 172.726 154.301L172.723 154.298L172.723 154.298C172.577 154.093 172.225 153.917 171.52 153.883C170.84 153.851 169.966 153.959 168.968 154.163C167.246 154.517 165.261 155.135 163.462 155.7Z" fill="black"/>
<path fill-rule="evenodd" clip-rule="evenodd" d="M124.944 158.702C129.173 156.097 133.478 155.185 137.927 155.196C138.213 155.197 138.445 155.429 138.446 155.715C138.447 156.001 138.216 156.234 137.93 156.236C133.652 156.27 129.522 157.103 125.49 159.587C125.245 159.738 124.925 159.662 124.775 159.418C124.624 159.173 124.7 158.853 124.944 158.702Z" fill="black"/>
<path fill-rule="evenodd" clip-rule="evenodd" d="M137.079 159.912C132.514 159.74 128.459 160.442 125.012 162.851C124.777 163.015 124.453 162.958 124.288 162.722C124.124 162.487 124.181 162.163 124.417 161.998C128.118 159.412 132.429 158.697 137.118 158.872C137.405 158.883 137.629 159.125 137.618 159.411C137.608 159.698 137.366 159.922 137.079 159.912Z" fill="black"/>
<path fill-rule="evenodd" clip-rule="evenodd" d="M137.193 157.61C137.085 157.344 137.213 157.04 137.479 156.932C137.487 156.929 137.496 156.926 137.504 156.923C139.382 156.166 141.386 156.015 143.249 156.427C143.528 156.488 143.705 156.763 143.646 157.042C143.587 157.321 143.314 157.501 143.034 157.444C141.312 157.096 139.557 157.212 137.87 157.896C137.604 158.004 137.301 157.876 137.193 157.61Z" fill="black"/>
<path fill-rule="evenodd" clip-rule="evenodd" d="M137.351 157.69C137.403 157.412 137.667 157.227 137.946 157.273C138.334 157.336 138.737 157.471 138.983 157.815C139.234 158.166 139.219 158.588 139.141 158.961C139.081 159.242 138.805 159.421 138.524 159.362C138.243 159.302 138.064 159.026 138.123 158.745C138.15 158.619 138.151 158.54 138.145 158.495C138.141 158.457 138.132 158.445 138.13 158.442C138.13 158.442 138.129 158.442 138.129 158.442C138.118 158.427 138.047 158.356 137.754 158.294C137.478 158.236 137.299 157.967 137.351 157.69Z" fill="black"/>
</g>
<defs>
<clipPath id="clip0">
<rect width="89" height="83" fill="white" transform="translate(0 145)"/>
</clipPath>
<clipPath id="clip1">
<rect width="175.2" height="245.815" fill="white" transform="translate(19 78.7719) rotate(-26.7187)"/>
</clipPath>
</defs>
</svg>
